# xmcd CD database file
#
# Track frame offsets:
#	150
#	37809
#	63844
#	99621
#	134246
#	157466
#	184098
#	205085
#
# Disc length: 3008 seconds
#
# Revision: 0
# Processed by: cddbd v1.5.2PL0 Copyright (c) Steve Scherf et al.
# Submitted via: CDex 1.70beta2
#
DISCID=730bbe08
DTITLE=Quadropedic - Úr Skel
DYEAR=2007
DGENRE=Jazz
TTITLE0=Stífluð Málstöð
TTITLE1=Undir Kvöldhimni
TTITLE2=Afablús
TTITLE3=Brigði
TTITLE4=Skjaldbökubúgí
TTITLE5=Hnoð
TTITLE6=Tíminn Drepinn
TTITLE7=Þó Bjart
EXTD=YEAR: 2007
EXTT0=
EXTT1=
EXTT2=
EXTT3=
EXTT4=
EXTT5=
EXTT6=
EXTT7=
PLAYORDER=
